<svg width="131" height="130" viewBox="0 0 131 130" fill="none" xmlns="http://www.w3.org/2000/svg">
<path fill-rule="evenodd" clip-rule="evenodd" d="M88.1332 107.529C89.203 108.58 90.9224 108.586 91.9922 107.529L113.82 85.8681C114.884 84.8606 114.884 83.0352 113.82 82.0277L91.9922 60.3664C90.9278 59.3102 89.1975 59.3102 88.1332 60.3664C87.0688 61.4227 87.0688 63.1397 88.1332 64.196L105.305 81.2368H19.1071C17.5951 81.2368 16.3779 82.4502 16.3779 83.9452C16.3779 85.4456 17.5951 86.6535 19.1071 86.6535H105.305L88.1332 103.7C87.0688 104.756 87.0688 106.473 88.1332 107.529Z" fill="black"/>
<path fill-rule="evenodd" clip-rule="evenodd" d="M10.9172 40.5408C10.8953 41.2991 11.1846 42.0087 11.725 42.5341L33.5474 64.1953C34.6173 65.257 36.3421 65.257 37.4119 64.1953C38.4763 63.1391 38.4763 61.422 37.4119 60.3658L20.2345 43.3249H106.438C107.944 43.3249 109.167 42.1116 109.167 40.6166C109.167 39.1162 107.944 37.9083 106.438 37.9083H20.2345L37.4119 20.862C38.4763 19.8058 38.4763 18.0887 37.4119 17.0324C36.3421 15.9762 34.6173 15.9762 33.5474 17.0324L11.7195 38.6937C11.2228 39.2028 10.9335 39.8366 10.9172 40.5408Z" fill="black"/>
</svg>
