<svg width="28" height="28" viewBox="0 0 28 28" fill="none" xmlns="http://www.w3.org/2000/svg">
<path fill-rule="evenodd" clip-rule="evenodd" d="M8 0C8.552 0 9 0.45 9 1V2H19V1C19 0.45 19.448 0 20 0C20.552 0 21 0.45 21 1V2H23C25.761 2 28 4.24 28 7V23C28 25.76 25.761 28 23 28H5C2.239 28 0 25.76 0 23V7C0 4.24 2.239 2 5 2H7V1C7 0.45 7.448 0 8 0ZM7 4H5C3.343 4 2 5.34 2 7V9H26V7C26 5.34 24.657 4 23 4H21V5C21 5.55 20.552 6 20 6C19.448 6 19 5.55 19 5V4H9V5C9 5.55 8.552 6 8 6C7.448 6 7 5.55 7 5V4ZM26 11H2V23C2 24.66 3.343 26 5 26H23C24.657 26 26 24.66 26 23V11ZM6 16C6 15.45 6.448 15 7 15H9C9.552 15 10 15.45 10 16C10 16.55 9.552 17 9 17H7C6.448 17 6 16.55 6 16ZM12 16C12 15.45 12.448 15 13 15H15C15.552 15 16 15.45 16 16C16 16.55 15.552 17 15 17H13C12.448 17 12 16.55 12 16ZM18 16C18 15.45 18.448 15 19 15H21C21.552 15 22 15.45 22 16C22 16.55 21.552 17 21 17H19C18.448 17 18 16.55 18 16ZM6 21C6 20.45 6.448 20 7 20H9C9.552 20 10 20.45 10 21C10 21.55 9.552 22 9 22H7C6.448 22 6 21.55 6 21ZM12 21C12 20.45 12.448 20 13 20H15C15.552 20 16 20.45 16 21C16 21.55 15.552 22 15 22H13C12.448 22 12 21.55 12 21ZM18 21C18 20.45 18.448 20 19 20H21C21.552 20 22 20.45 22 21C22 21.55 21.552 22 21 22H19C18.448 22 18 21.55 18 21Z" fill="black"/>
</svg>
